<svg width="101" height="23" viewBox="0 0 101 23" fill="none" xmlns="http://www.w3.org/2000/svg">
<path fill-rule="evenodd" clip-rule="evenodd" d="M14.0792 3.70117C13.2036 2.20768 11.0147 2.20768 10.1391 3.70117L2.30816 17.0585C1.43258 18.552 2.52706 20.4189 4.27821 20.4189H14.0599H19.9401H29.7218C31.4729 20.4189 32.5674 18.552 31.6918 17.0585L23.8609 3.70117C22.9853 2.20768 20.7964 2.20768 19.9208 3.70117L17 8.68324L14.0792 3.70117Z" stroke="url(#paint0_linear_8_257)" stroke-width="3"/>
<path d="M17.3378 14.1861C17.3378 14.5672 17.2075 14.8409 17.0885 14.9833C17.0505 15.0287 17.0206 15.0547 16.9999 15.0693C16.9793 15.0547 16.9494 15.0287 16.9114 14.9833C16.7924 14.8409 16.6621 14.5671 16.6621 14.1861C16.6621 14.2026 16.6624 14.2013 16.6671 14.1808C16.6801 14.1239 16.7268 13.9191 16.8945 13.5373C16.9274 13.4624 16.9626 13.3858 16.9999 13.3078C17.0373 13.3858 17.0725 13.4624 17.1054 13.5373C17.2731 13.9191 17.3198 14.1239 17.3328 14.1808C17.3375 14.2013 17.3378 14.2026 17.3378 14.1861ZM16.9673 15.0861C16.9672 15.0857 16.9705 15.0841 16.9774 15.0828C16.9708 15.0859 16.9674 15.0866 16.9673 15.0861ZM17.0225 15.0828C17.0294 15.0841 17.0327 15.0857 17.0326 15.0861C17.0325 15.0866 17.0291 15.0859 17.0225 15.0828Z" stroke="url(#paint1_linear_8_257)" stroke-width="5"/>
<path d="M49.8675 17V5.8H51.4675V15.608H57.5315V17H49.8675ZM62.6661 17.096C61.8128 17.096 61.0555 16.9093 60.3941 16.536C59.7328 16.1627 59.2101 15.6507 58.8261 15C58.4421 14.3387 58.2501 13.592 58.2501 12.76C58.2501 11.9173 58.4421 11.1707 58.8261 10.52C59.2101 9.86933 59.7328 9.36267 60.3941 9C61.0555 8.62667 61.8128 8.44 62.6661 8.44C63.5088 8.44 64.2608 8.62667 64.9221 9C65.5941 9.36267 66.1168 9.86933 66.4901 10.52C66.8741 11.16 67.0661 11.9067 67.0661 12.76C67.0661 13.6027 66.8741 14.3493 66.4901 15C66.1168 15.6507 65.5941 16.1627 64.9221 16.536C64.2608 16.9093 63.5088 17.096 62.6661 17.096ZM62.6661 15.752C63.2101 15.752 63.6955 15.6293 64.1221 15.384C64.5595 15.1387 64.9008 14.792 65.1461 14.344C65.3915 13.8853 65.5141 13.3573 65.5141 12.76C65.5141 12.152 65.3915 11.6293 65.1461 11.192C64.9008 10.744 64.5595 10.3973 64.1221 10.152C63.6955 9.90667 63.2101 9.784 62.6661 9.784C62.1221 9.784 61.6368 9.90667 61.2101 10.152C60.7835 10.3973 60.4421 10.744 60.1861 11.192C59.9301 11.6293 59.8021 12.152 59.8021 12.76C59.8021 13.3573 59.9301 13.8853 60.1861 14.344C60.4421 14.792 60.7835 15.1387 61.2101 15.384C61.6368 15.6293 62.1221 15.752 62.6661 15.752ZM69.1904 17V8.52H70.6624V10.824L70.5184 10.248C70.753 9.66133 71.1477 9.21333 71.7024 8.904C72.257 8.59467 72.9397 8.44 73.7504 8.44V9.928C73.6864 9.91733 73.6224 9.912 73.5584 9.912C73.505 9.912 73.4517 9.912 73.3984 9.912C72.577 9.912 71.9264 10.1573 71.4464 10.648C70.9664 11.1387 70.7264 11.848 70.7264 12.776V17H69.1904ZM79.3414 17.096C78.4347 17.096 77.6347 16.9093 76.9414 16.536C76.2587 16.1627 75.7254 15.6507 75.3414 15C74.968 14.3493 74.7814 13.6027 74.7814 12.76C74.7814 11.9173 74.9627 11.1707 75.3254 10.52C75.6987 9.86933 76.2054 9.36267 76.8454 9C77.496 8.62667 78.2267 8.44 79.0374 8.44C79.8587 8.44 80.584 8.62133 81.2134 8.984C81.8427 9.34667 82.3334 9.85867 82.6854 10.52C83.048 11.1707 83.2294 11.9333 83.2294 12.808C83.2294 12.872 83.224 12.9467 83.2134 13.032C83.2134 13.1173 83.208 13.1973 83.1974 13.272H75.9814V12.168H82.3974L81.7734 12.552C81.784 12.008 81.672 11.5227 81.4374 11.096C81.2027 10.6693 80.8774 10.3387 80.4614 10.104C80.056 9.85867 79.5814 9.736 79.0374 9.736C78.504 9.736 78.0294 9.85867 77.6134 10.104C77.1974 10.3387 76.872 10.6747 76.6374 11.112C76.4027 11.5387 76.2854 12.0293 76.2854 12.584V12.84C76.2854 13.4053 76.4134 13.912 76.6694 14.36C76.936 14.7973 77.304 15.1387 77.7734 15.384C78.2427 15.6293 78.7814 15.752 79.3894 15.752C79.8907 15.752 80.344 15.6667 80.7494 15.496C81.1654 15.3253 81.528 15.0693 81.8374 14.728L82.6854 15.72C82.3014 16.168 81.8214 16.5093 81.2454 16.744C80.68 16.9787 80.0454 17.096 79.3414 17.096ZM95.9703 8.44C96.6529 8.44 97.2556 8.57333 97.7783 8.84C98.3009 9.10667 98.7063 9.512 98.9943 10.056C99.2929 10.6 99.4423 11.288 99.4423 12.12V17H97.9063V12.296C97.9063 11.4747 97.7143 10.856 97.3303 10.44C96.9463 10.024 96.4076 9.816 95.7143 9.816C95.2023 9.816 94.7543 9.92267 94.3703 10.136C93.9863 10.3493 93.6876 10.664 93.4743 11.08C93.2716 11.496 93.1703 12.0133 93.1703 12.632V17H91.6343V12.296C91.6343 11.4747 91.4423 10.856 91.0583 10.44C90.6849 10.024 90.1463 9.816 89.4423 9.816C88.9409 9.816 88.4983 9.92267 88.1143 10.136C87.7303 10.3493 87.4316 10.664 87.2183 11.08C87.0049 11.496 86.8983 12.0133 86.8983 12.632V17H85.3623V8.52H86.8343V10.776L86.5943 10.2C86.8609 9.64533 87.2716 9.21333 87.8263 8.904C88.3809 8.59467 89.0263 8.44 89.7623 8.44C90.5729 8.44 91.2716 8.64267 91.8583 9.048C92.4449 9.44267 92.8289 10.0453 93.0103 10.856L92.3863 10.6C92.6423 9.94933 93.0903 9.42667 93.7303 9.032C94.3703 8.63733 95.1169 8.44 95.9703 8.44Z" fill="white"/>
<defs>
<linearGradient id="paint0_linear_8_257" x1="17" y1="2.58105" x2="17" y2="20.4189" gradientUnits="userSpaceOnUse">
<stop stop-color="#5B3962"/>
<stop offset="1" stop-color="#1CB174"/>
</linearGradient>
<linearGradient id="paint1_linear_8_257" x1="17" y1="9.10815" x2="16.9999" y2="17.581" gradientUnits="userSpaceOnUse">
<stop stop-color="#446568"/>
<stop offset="1" stop-color="#21A672"/>
</linearGradient>
</defs>
</svg>
